<svg xmlns="http://www.w3.org/2000/svg" width="32" height="32" viewBox="0 0 32 32" fill="none">
  <rect width="32" height="32" rx="8" fill="#0d9488"/>
  <path d="M8 10C8 8.89543 8.89543 8 10 8H14V12H8V10Z" fill="white" opacity="0.9"/>
  <path d="M18 8H22C23.1046 8 24 8.89543 24 10V12H18V8Z" fill="white" opacity="0.9"/>
  <path d="M8 20V22C8 23.1046 8.89543 24 10 24H14V20H8Z" fill="white" opacity="0.9"/>
  <path d="M18 24H22C23.1046 24 24 23.1046 24 22V20H18V24Z" fill="white" opacity="0.9"/>
  <circle cx="12.5" cy="14.5" r="1.5" fill="white"/>
  <circle cx="19.5" cy="14.5" r="1.5" fill="white"/>
  <path d="M12 20C12 20 13.5 22 16 22C18.5 22 20 20 20 20" stroke="white" stroke-width="1.5" stroke-linecap="round"/>
</svg>
